<mxfile host="65bd71144e">
    <diagram id="Zo9RKs9FUwtW8zRfNv9M" name="Seite-1">
        <mxGraphModel dx="3710" dy="1890" grid="1" gridSize="10" guides="1" tooltips="1" connect="1" arrows="1" fold="1" page="1" pageScale="1" pageWidth="850" pageHeight="1100" math="0" shadow="0">
            <root>
                <mxCell id="0"/>
                <mxCell id="1" parent="0"/>
                <mxCell id="119" value="updates" style="edgeStyle=none;html=1;exitX=1;exitY=0;exitDx=0;exitDy=0;fontSize=13;strokeWidth=3;" parent="1" source="2" edge="1">
                    <mxGeometry relative="1" as="geometry">
                        <mxPoint x="-840" y="-840" as="targetPoint"/>
                    </mxGeometry>
                </mxCell>
                <mxCell id="2" value="EnzymeModel" style="swimlane;fontStyle=0;align=center;verticalAlign=top;childLayout=stackLayout;horizontal=1;startSize=55;horizontalStack=0;resizeParent=1;resizeParentMax=0;resizeLast=0;collapsible=0;marginBottom=0;html=1;" parent="1" vertex="1">
                    <mxGeometry x="-1100" y="-700" width="140" height="205" as="geometry"/>
                </mxCell>
                <mxCell id="3" value="attributes" style="text;html=1;strokeColor=none;fillColor=none;align=center;verticalAlign=middle;spacingLeft=4;spacingRight=4;overflow=hidden;rotatable=0;points=[[0,0.5],[1,0.5]];portConstraint=eastwest;" parent="2" vertex="1">
                    <mxGeometry y="55" width="140" height="35" as="geometry"/>
                </mxCell>
                <mxCell id="4" value="ph: int" style="text;html=1;strokeColor=none;fillColor=none;align=left;verticalAlign=middle;spacingLeft=4;spacingRight=4;overflow=hidden;rotatable=0;points=[[0,0.5],[1,0.5]];portConstraint=eastwest;" parent="2" vertex="1">
                    <mxGeometry y="90" width="140" height="20" as="geometry"/>
                </mxCell>
                <mxCell id="6" value="amino_acids: queue" style="text;html=1;strokeColor=none;fillColor=none;align=left;verticalAlign=middle;spacingLeft=4;spacingRight=4;overflow=hidden;rotatable=0;points=[[0,0.5],[1,0.5]];portConstraint=eastwest;" parent="2" vertex="1">
                    <mxGeometry y="110" width="140" height="20" as="geometry"/>
                </mxCell>
                <mxCell id="7" value="" style="line;strokeWidth=1;fillColor=none;align=left;verticalAlign=middle;spacingTop=-1;spacingLeft=3;spacingRight=3;rotatable=0;labelPosition=right;points=[];portConstraint=eastwest;" parent="2" vertex="1">
                    <mxGeometry y="130" width="140" height="8" as="geometry"/>
                </mxCell>
                <mxCell id="8" value="operations" style="text;html=1;strokeColor=none;fillColor=none;align=center;verticalAlign=middle;spacingLeft=4;spacingRight=4;overflow=hidden;rotatable=0;points=[[0,0.5],[1,0.5]];portConstraint=eastwest;" parent="2" vertex="1">
                    <mxGeometry y="138" width="140" height="20" as="geometry"/>
                </mxCell>
                <mxCell id="9" value="set_ph(int: newVal)&lt;br&gt;set_temperature(int: new val)" style="text;html=1;strokeColor=none;fillColor=none;align=left;verticalAlign=middle;spacingLeft=4;spacingRight=4;overflow=hidden;rotatable=0;points=[[0,0.5],[1,0.5]];portConstraint=eastwest;" parent="2" vertex="1">
                    <mxGeometry y="158" width="140" height="47" as="geometry"/>
                </mxCell>
                <mxCell id="96" value="updates" style="edgeStyle=none;html=1;entryX=0.499;entryY=1.176;entryDx=0;entryDy=0;entryPerimeter=0;fontSize=13;strokeWidth=3;exitX=1;exitY=0;exitDx=0;exitDy=0;" parent="1" source="10" target="87" edge="1">
                    <mxGeometry relative="1" as="geometry">
                        <mxPoint x="-1965.63" y="-110.91099999999983" as="targetPoint"/>
                    </mxGeometry>
                </mxCell>
                <mxCell id="10" value="WaterModel" style="swimlane;fontStyle=0;align=center;verticalAlign=top;childLayout=stackLayout;horizontal=1;startSize=55;horizontalStack=0;resizeParent=1;resizeParentMax=0;resizeLast=0;collapsible=0;marginBottom=0;html=1;" parent="1" vertex="1">
                    <mxGeometry x="-2190" y="-10" width="140" height="267" as="geometry"/>
                </mxCell>
                <mxCell id="11" value="attributes" style="text;html=1;strokeColor=none;fillColor=none;align=center;verticalAlign=middle;spacingLeft=4;spacingRight=4;overflow=hidden;rotatable=0;points=[[0,0.5],[1,0.5]];portConstraint=eastwest;" parent="10" vertex="1">
                    <mxGeometry y="55" width="140" height="35" as="geometry"/>
                </mxCell>
                <mxCell id="12" value="ph: int" style="text;html=1;strokeColor=none;fillColor=none;align=left;verticalAlign=middle;spacingLeft=4;spacingRight=4;overflow=hidden;rotatable=0;points=[[0,0.5],[1,0.5]];portConstraint=eastwest;" parent="10" vertex="1">
                    <mxGeometry y="90" width="140" height="20" as="geometry"/>
                </mxCell>
                <mxCell id="13" value="temperature: int" style="text;html=1;strokeColor=none;fillColor=none;align=left;verticalAlign=middle;spacingLeft=4;spacingRight=4;overflow=hidden;rotatable=0;points=[[0,0.5],[1,0.5]];portConstraint=eastwest;" parent="10" vertex="1">
                    <mxGeometry y="110" width="140" height="20" as="geometry"/>
                </mxCell>
                <mxCell id="122" value="enzyme: list" style="text;html=1;strokeColor=none;fillColor=none;align=left;verticalAlign=middle;spacingLeft=4;spacingRight=4;overflow=hidden;rotatable=0;points=[[0,0.5],[1,0.5]];portConstraint=eastwest;" parent="10" vertex="1">
                    <mxGeometry y="130" width="140" height="20" as="geometry"/>
                </mxCell>
                <mxCell id="14" value="" style="line;strokeWidth=1;fillColor=none;align=left;verticalAlign=middle;spacingTop=-1;spacingLeft=3;spacingRight=3;rotatable=0;labelPosition=right;points=[];portConstraint=eastwest;" parent="10" vertex="1">
                    <mxGeometry y="150" width="140" height="50" as="geometry"/>
                </mxCell>
                <mxCell id="15" value="operations" style="text;html=1;strokeColor=none;fillColor=none;align=center;verticalAlign=middle;spacingLeft=4;spacingRight=4;overflow=hidden;rotatable=0;points=[[0,0.5],[1,0.5]];portConstraint=eastwest;" parent="10" vertex="1">
                    <mxGeometry y="200" width="140" height="20" as="geometry"/>
                </mxCell>
                <mxCell id="16" value="set_ph(int: newVal)&lt;br&gt;set_temperature(int: new val)" style="text;html=1;strokeColor=none;fillColor=none;align=left;verticalAlign=middle;spacingLeft=4;spacingRight=4;overflow=hidden;rotatable=0;points=[[0,0.5],[1,0.5]];portConstraint=eastwest;" parent="10" vertex="1">
                    <mxGeometry y="220" width="140" height="47" as="geometry"/>
                </mxCell>
                <mxCell id="75" value="waterController" style="swimlane;fontStyle=0;align=center;verticalAlign=top;childLayout=stackLayout;horizontal=1;startSize=55;horizontalStack=0;resizeParent=1;resizeParentMax=0;resizeLast=0;collapsible=0;marginBottom=0;html=1;" parent="1" vertex="1">
                    <mxGeometry x="-2140" y="-740" width="200" height="180" as="geometry"/>
                </mxCell>
                <mxCell id="76" value="- model: Water&lt;br&gt;- View: WaterView" style="text;html=1;strokeColor=none;fillColor=none;align=center;verticalAlign=middle;spacingLeft=4;spacingRight=4;overflow=hidden;rotatable=0;points=[[0,0.5],[1,0.5]];portConstraint=eastwest;" parent="75" vertex="1">
                    <mxGeometry y="55" width="200" height="35" as="geometry"/>
                </mxCell>
                <mxCell id="79" value="" style="line;strokeWidth=1;fillColor=none;align=left;verticalAlign=middle;spacingTop=-1;spacingLeft=3;spacingRight=3;rotatable=0;labelPosition=right;points=[];portConstraint=eastwest;" parent="75" vertex="1">
                    <mxGeometry y="90" width="200" height="8" as="geometry"/>
                </mxCell>
                <mxCell id="80" value="methods" style="text;html=1;strokeColor=none;fillColor=none;align=center;verticalAlign=middle;spacingLeft=4;spacingRight=4;overflow=hidden;rotatable=0;points=[[0,0.5],[1,0.5]];portConstraint=eastwest;" parent="75" vertex="1">
                    <mxGeometry y="98" width="200" height="82" as="geometry"/>
                </mxCell>
                <mxCell id="82" value="WaterView" style="swimlane;fontStyle=0;align=center;verticalAlign=top;childLayout=stackLayout;horizontal=1;startSize=55;horizontalStack=0;resizeParent=1;resizeParentMax=0;resizeLast=0;collapsible=0;marginBottom=0;html=1;" parent="1" vertex="1">
                    <mxGeometry x="-1970" y="-280" width="190" height="118" as="geometry"/>
                </mxCell>
                <mxCell id="83" value="attributes" style="text;html=1;strokeColor=none;fillColor=none;align=center;verticalAlign=middle;spacingLeft=4;spacingRight=4;overflow=hidden;rotatable=0;points=[[0,0.5],[1,0.5]];portConstraint=eastwest;" parent="82" vertex="1">
                    <mxGeometry y="55" width="190" height="35" as="geometry"/>
                </mxCell>
                <mxCell id="86" value="" style="line;strokeWidth=1;fillColor=none;align=left;verticalAlign=middle;spacingTop=-1;spacingLeft=3;spacingRight=3;rotatable=0;labelPosition=right;points=[];portConstraint=eastwest;" parent="82" vertex="1">
                    <mxGeometry y="90" width="190" height="8" as="geometry"/>
                </mxCell>
                <mxCell id="87" value="operations" style="text;html=1;strokeColor=none;fillColor=none;align=center;verticalAlign=middle;spacingLeft=4;spacingRight=4;overflow=hidden;rotatable=0;points=[[0,0.5],[1,0.5]];portConstraint=eastwest;" parent="82" vertex="1">
                    <mxGeometry y="98" width="190" height="20" as="geometry"/>
                </mxCell>
                <mxCell id="105" value="EnzymeController" style="swimlane;fontStyle=0;align=center;verticalAlign=top;childLayout=stackLayout;horizontal=1;startSize=55;horizontalStack=0;resizeParent=1;resizeParentMax=0;resizeLast=0;collapsible=0;marginBottom=0;html=1;" parent="1" vertex="1">
                    <mxGeometry x="-1290" y="-970" width="140" height="160" as="geometry"/>
                </mxCell>
                <mxCell id="106" value="- model: EnzymeModel&lt;br&gt;- view: EnzymeView" style="text;html=1;strokeColor=none;fillColor=none;align=center;verticalAlign=middle;spacingLeft=4;spacingRight=4;overflow=hidden;rotatable=0;points=[[0,0.5],[1,0.5]];portConstraint=eastwest;" parent="105" vertex="1">
                    <mxGeometry y="55" width="140" height="35" as="geometry"/>
                </mxCell>
                <mxCell id="109" value="" style="line;strokeWidth=1;fillColor=none;align=left;verticalAlign=middle;spacingTop=-1;spacingLeft=3;spacingRight=3;rotatable=0;labelPosition=right;points=[];portConstraint=eastwest;" parent="105" vertex="1">
                    <mxGeometry y="90" width="140" height="8" as="geometry"/>
                </mxCell>
                <mxCell id="110" value="operations" style="text;html=1;strokeColor=none;fillColor=none;align=center;verticalAlign=middle;spacingLeft=4;spacingRight=4;overflow=hidden;rotatable=0;points=[[0,0.5],[1,0.5]];portConstraint=eastwest;" parent="105" vertex="1">
                    <mxGeometry y="98" width="140" height="62" as="geometry"/>
                </mxCell>
                <mxCell id="112" value="EnzymeView" style="swimlane;fontStyle=0;align=center;verticalAlign=top;childLayout=stackLayout;horizontal=1;startSize=55;horizontalStack=0;resizeParent=1;resizeParentMax=0;resizeLast=0;collapsible=0;marginBottom=0;html=1;" parent="1" vertex="1">
                    <mxGeometry x="-910" y="-970" width="140" height="118" as="geometry"/>
                </mxCell>
                <mxCell id="113" value="attributes" style="text;html=1;strokeColor=none;fillColor=none;align=center;verticalAlign=middle;spacingLeft=4;spacingRight=4;overflow=hidden;rotatable=0;points=[[0,0.5],[1,0.5]];portConstraint=eastwest;" parent="112" vertex="1">
                    <mxGeometry y="55" width="140" height="35" as="geometry"/>
                </mxCell>
                <mxCell id="116" value="" style="line;strokeWidth=1;fillColor=none;align=left;verticalAlign=middle;spacingTop=-1;spacingLeft=3;spacingRight=3;rotatable=0;labelPosition=right;points=[];portConstraint=eastwest;" parent="112" vertex="1">
                    <mxGeometry y="90" width="140" height="8" as="geometry"/>
                </mxCell>
                <mxCell id="117" value="operations" style="text;html=1;strokeColor=none;fillColor=none;align=center;verticalAlign=middle;spacingLeft=4;spacingRight=4;overflow=hidden;rotatable=0;points=[[0,0.5],[1,0.5]];portConstraint=eastwest;" parent="112" vertex="1">
                    <mxGeometry y="98" width="140" height="20" as="geometry"/>
                </mxCell>
                <mxCell id="120" value="modifies" style="edgeStyle=none;html=1;entryX=0.094;entryY=0.007;entryDx=0;entryDy=0;entryPerimeter=0;fontSize=13;strokeWidth=3;" parent="1" source="110" target="2" edge="1">
                    <mxGeometry relative="1" as="geometry"/>
                </mxCell>
                <mxCell id="142" value="GameModel" style="swimlane;fontStyle=0;align=center;verticalAlign=top;childLayout=stackLayout;horizontal=1;startSize=55;horizontalStack=0;resizeParent=1;resizeParentMax=0;resizeLast=0;collapsible=0;marginBottom=0;html=1;" parent="1" vertex="1">
                    <mxGeometry x="-1800" y="-730" width="140" height="160" as="geometry"/>
                </mxCell>
                <mxCell id="143" value="attributes" style="text;html=1;strokeColor=none;fillColor=none;align=center;verticalAlign=middle;spacingLeft=4;spacingRight=4;overflow=hidden;rotatable=0;points=[[0,0.5],[1,0.5]];portConstraint=eastwest;" parent="142" vertex="1">
                    <mxGeometry y="55" width="140" height="35" as="geometry"/>
                </mxCell>
                <mxCell id="147" value="" style="line;strokeWidth=1;fillColor=none;align=left;verticalAlign=middle;spacingTop=-1;spacingLeft=3;spacingRight=3;rotatable=0;labelPosition=right;points=[];portConstraint=eastwest;" parent="142" vertex="1">
                    <mxGeometry y="90" width="140" height="50" as="geometry"/>
                </mxCell>
                <mxCell id="148" value="operations" style="text;html=1;strokeColor=none;fillColor=none;align=center;verticalAlign=middle;spacingLeft=4;spacingRight=4;overflow=hidden;rotatable=0;points=[[0,0.5],[1,0.5]];portConstraint=eastwest;" parent="142" vertex="1">
                    <mxGeometry y="140" width="140" height="20" as="geometry"/>
                </mxCell>
                <mxCell id="151" value="MasterGameController" style="swimlane;fontStyle=0;align=center;verticalAlign=top;childLayout=stackLayout;horizontal=1;startSize=55;horizontalStack=0;resizeParent=1;resizeParentMax=0;resizeLast=0;collapsible=0;marginBottom=0;html=1;" parent="1" vertex="1">
                    <mxGeometry x="-2140" y="-950" width="200" height="180" as="geometry"/>
                </mxCell>
                <mxCell id="152" value="- model:&amp;nbsp;&lt;br&gt;- View:&amp;nbsp;" style="text;html=1;strokeColor=none;fillColor=none;align=center;verticalAlign=middle;spacingLeft=4;spacingRight=4;overflow=hidden;rotatable=0;points=[[0,0.5],[1,0.5]];portConstraint=eastwest;" parent="151" vertex="1">
                    <mxGeometry y="55" width="200" height="35" as="geometry"/>
                </mxCell>
                <mxCell id="153" value="" style="line;strokeWidth=1;fillColor=none;align=left;verticalAlign=middle;spacingTop=-1;spacingLeft=3;spacingRight=3;rotatable=0;labelPosition=right;points=[];portConstraint=eastwest;" parent="151" vertex="1">
                    <mxGeometry y="90" width="200" height="8" as="geometry"/>
                </mxCell>
                <mxCell id="154" value="methods" style="text;html=1;strokeColor=none;fillColor=none;align=center;verticalAlign=middle;spacingLeft=4;spacingRight=4;overflow=hidden;rotatable=0;points=[[0,0.5],[1,0.5]];portConstraint=eastwest;" parent="151" vertex="1">
                    <mxGeometry y="98" width="200" height="82" as="geometry"/>
                </mxCell>
                <mxCell id="155" value="GameView" style="swimlane;fontStyle=0;align=center;verticalAlign=top;childLayout=stackLayout;horizontal=1;startSize=55;horizontalStack=0;resizeParent=1;resizeParentMax=0;resizeLast=0;collapsible=0;marginBottom=0;html=1;" parent="1" vertex="1">
                    <mxGeometry x="-2460" y="-730" width="190" height="160" as="geometry"/>
                </mxCell>
                <mxCell id="156" value="attributes" style="text;html=1;strokeColor=none;fillColor=none;align=center;verticalAlign=middle;spacingLeft=4;spacingRight=4;overflow=hidden;rotatable=0;points=[[0,0.5],[1,0.5]];portConstraint=eastwest;" parent="155" vertex="1">
                    <mxGeometry y="55" width="190" height="35" as="geometry"/>
                </mxCell>
                <mxCell id="157" value="" style="line;strokeWidth=1;fillColor=none;align=left;verticalAlign=middle;spacingTop=-1;spacingLeft=3;spacingRight=3;rotatable=0;labelPosition=right;points=[];portConstraint=eastwest;" parent="155" vertex="1">
                    <mxGeometry y="90" width="190" height="8" as="geometry"/>
                </mxCell>
                <mxCell id="158" value="operations" style="text;html=1;strokeColor=none;fillColor=none;align=center;verticalAlign=middle;spacingLeft=4;spacingRight=4;overflow=hidden;rotatable=0;points=[[0,0.5],[1,0.5]];portConstraint=eastwest;" parent="155" vertex="1">
                    <mxGeometry y="98" width="190" height="62" as="geometry"/>
                </mxCell>
            </root>
        </mxGraphModel>
    </diagram>
</mxfile>